<?xml version="1.0" standalone="no"?>
<!DOCTYPE svg PUBLIC "-//W3C//DTD SVG 20010904//EN"
 "http://www.w3.org/TR/2001/REC-SVG-20010904/DTD/svg10.dtd">
<svg version="1.0" xmlns="http://www.w3.org/2000/svg"
 width="512.000000pt" height="512.000000pt" viewBox="0 0 512.000000 512.000000"
 preserveAspectRatio="xMidYMid meet">
<metadata>
Created by potrace 1.11, written by Peter Selinger 2001-2013
</metadata>
<g transform="translate(0.000000,512.000000) scale(0.100000,-0.100000)"
fill="#000000" stroke="none">
<path d="M2330 4750 c-30 -4 -77 -10 -105 -14 -27 -4 -57 -9 -65 -11 -8 -2
-31 -7 -50 -10 -83 -14 -255 -65 -360 -107 -171 -68 -435 -219 -542 -310 -15
-13 -42 -34 -59 -48 -46 -35 -236 -225 -284 -284 -52 -63 -175 -237 -183 -256
-3 -8 -13 -26 -23 -40 -29 -43 -115 -221 -152 -316 -63 -161 -118 -384 -135
-546 -9 -93 -9 -426 1 -498 12 -95 17 -124 22 -150 3 -14 8 -38 10 -55 12 -64
58 -224 92 -315 210 -563 653 -1023 1218 -1265 68 -29 267 -92 330 -105 33 -6
74 -15 90 -20 30 -9 66 -14 200 -30 145 -17 432 -9 565 15 14 3 52 9 85 15
224 36 541 163 761 305 178 115 370 284 504 443 268 319 443 726 497 1157 10
78 10 456 0 520 -4 28 -10 61 -12 75 -2 14 -6 42 -9 64 -4 21 -8 41 -10 45 -2
3 -7 22 -10 41 -3 19 -19 81 -36 137 -203 685 -738 1238 -1410 1460 -58 19
-112 36 -120 38 -8 2 -46 11 -85 20 -147 35 -253 47 -460 50 -115 1 -235 -1
-265 -5z"/>
</g>
</svg>
