<svg width="420" height="116" viewBox="0 0 420 116" fill="none" xmlns="http://www.w3.org/2000/svg">
<path fill-rule="evenodd" clip-rule="evenodd" d="M12.7322 76.8217C12.3417 76.4312 12.3417 75.798 12.7322 75.4075L71.3457 16.7941C72.1268 16.013 73.3931 16.013 74.1742 16.7941L91.9044 34.5243C92.6854 35.3053 92.6854 36.5717 91.9044 37.3527L33.2908 95.9661C32.9003 96.3567 32.2671 96.3567 31.8766 95.9661L12.7322 76.8217ZM77.4293 13.5389C76.6482 12.7579 76.6482 11.4915 77.4293 10.7105L79.8468 8.29289C80.2373 7.90237 80.8705 7.90237 81.261 8.29289L100.405 27.4373C100.796 27.8279 100.796 28.461 100.405 28.8515L97.988 31.2691C97.2069 32.0502 95.9406 32.0502 95.1595 31.2691L77.4293 13.5389ZM5.03952 108.586C2.06524 109.383 -0.656412 106.661 0.140544 103.687L5.24335 84.6432C6.0403 81.6689 9.75815 80.6727 11.9355 82.8501L25.8766 96.7912C28.0539 98.9685 27.0577 102.686 24.0835 103.483L5.03952 108.586Z" fill="white"/>
<path d="M169.636 57.6818H152.318C152.227 56.6136 151.852 55.6932 151.193 54.9205C150.534 54.1477 149.682 53.5568 148.636 53.1477C147.614 52.7159 146.477 52.5 145.227 52.5C143.614 52.5 142.227 52.7955 141.068 53.3864C139.909 53.9773 139.341 54.8182 139.364 55.9091C139.341 56.6818 139.67 57.3977 140.352 58.0568C141.057 58.7159 142.409 59.2273 144.409 59.5909L155.045 61.5C160.409 62.4773 164.398 64.125 167.011 66.4432C169.648 68.7386 170.977 71.8182 171 75.6818C170.977 79.4091 169.864 82.6477 167.659 85.3977C165.477 88.125 162.489 90.2386 158.693 91.7386C154.92 93.2159 150.614 93.9545 145.773 93.9545C137.773 93.9545 131.511 92.3182 126.989 89.0455C122.489 85.7727 119.977 81.4545 119.455 76.0909H138.136C138.386 77.75 139.205 79.0341 140.591 79.9432C142 80.8295 143.773 81.2727 145.909 81.2727C147.636 81.2727 149.057 80.9773 150.17 80.3864C151.307 79.7955 151.886 78.9545 151.909 77.8636C151.886 76.8636 151.386 76.0682 150.409 75.4773C149.455 74.8864 147.955 74.4091 145.909 74.0455L136.636 72.4091C131.295 71.4773 127.295 69.7045 124.636 67.0909C121.977 64.4773 120.659 61.1136 120.682 57C120.659 53.3636 121.614 50.2841 123.545 47.7614C125.5 45.2159 128.284 43.2841 131.898 41.9659C135.534 40.625 139.841 39.9545 144.818 39.9545C152.386 39.9545 158.352 41.5227 162.716 44.6591C167.102 47.7955 169.409 52.1364 169.636 57.6818ZM209.438 40.6364V54.2727H174.938V40.6364H209.438ZM181.619 28.0909H200.438V76.1591C200.438 76.8864 200.562 77.5 200.812 78C201.062 78.4773 201.449 78.8409 201.972 79.0909C202.494 79.3182 203.165 79.4318 203.983 79.4318C204.551 79.4318 205.21 79.3636 205.96 79.2273C206.733 79.0909 207.301 78.9773 207.665 78.8864L210.392 92.1136C209.551 92.3636 208.347 92.6705 206.778 93.0341C205.233 93.3977 203.392 93.6364 201.256 93.75C196.938 93.9773 193.313 93.5341 190.381 92.4205C187.449 91.2841 185.244 89.5 183.767 87.0682C182.29 84.6364 181.574 81.5909 181.619 77.9318V28.0909ZM228.571 112.636C226.412 112.636 224.355 112.466 222.401 112.125C220.446 111.807 218.73 111.364 217.253 110.795L221.344 97.4318C222.889 97.9773 224.298 98.3295 225.571 98.4886C226.866 98.6477 227.969 98.5568 228.878 98.2159C229.81 97.875 230.48 97.2273 230.889 96.2727L231.298 95.3182L212.889 40.6364H232.526L240.98 76.9091H241.526L250.116 40.6364H269.889L250.798 97.3636C249.844 100.25 248.457 102.841 246.639 105.136C244.844 107.455 242.48 109.284 239.548 110.625C236.616 111.966 232.957 112.636 228.571 112.636ZM275.241 112.636V40.6364H293.923V49.7727H294.332C295.014 48 296.014 46.375 297.332 44.8977C298.651 43.3977 300.287 42.2045 302.241 41.3182C304.196 40.4091 306.469 39.9545 309.06 39.9545C312.514 39.9545 315.798 40.875 318.912 42.7159C322.048 44.5568 324.594 47.4545 326.548 51.4091C328.526 55.3636 329.514 60.5 329.514 66.8182C329.514 72.8636 328.571 77.875 326.685 81.8523C324.821 85.8295 322.321 88.7955 319.185 90.75C316.071 92.7045 312.651 93.6818 308.923 93.6818C306.469 93.6818 304.276 93.2841 302.344 92.4886C300.435 91.6705 298.798 90.5682 297.435 89.1818C296.094 87.7727 295.06 86.1818 294.332 84.4091H294.06V112.636H275.241ZM293.651 66.8182C293.651 69.3636 293.98 71.5682 294.639 73.4318C295.321 75.2727 296.276 76.7045 297.503 77.7273C298.753 78.7273 300.241 79.2273 301.969 79.2273C303.696 79.2273 305.162 78.7386 306.366 77.7614C307.594 76.7614 308.526 75.3409 309.162 73.5C309.821 71.6364 310.151 69.4091 310.151 66.8182C310.151 64.2273 309.821 62.0114 309.162 60.1705C308.526 58.3068 307.594 56.8864 306.366 55.9091C305.162 54.9091 303.696 54.4091 301.969 54.4091C300.241 54.4091 298.753 54.9091 297.503 55.9091C296.276 56.8864 295.321 58.3068 294.639 60.1705C293.98 62.0114 293.651 64.2273 293.651 66.8182ZM356.216 23.1818V93H337.398V23.1818H356.216ZM390.895 93.9545C385.304 93.9545 380.486 92.8864 376.44 90.75C372.418 88.5909 369.315 85.5 367.134 81.4773C364.974 77.4318 363.895 72.5909 363.895 66.9545C363.895 61.5455 364.986 56.8182 367.168 52.7727C369.349 48.7273 372.429 45.5795 376.406 43.3295C380.384 41.0795 385.077 39.9545 390.486 39.9545C394.44 39.9545 398.02 40.5682 401.224 41.7955C404.429 43.0227 407.168 44.8068 409.44 47.1477C411.713 49.4659 413.463 52.2841 414.69 55.6023C415.918 58.9205 416.531 62.6591 416.531 66.8182V71.1818H369.759V60.8182H399.213C399.19 59.3182 398.804 58 398.054 56.8636C397.327 55.7045 396.338 54.8068 395.088 54.1705C393.861 53.5114 392.463 53.1818 390.895 53.1818C389.372 53.1818 387.974 53.5114 386.702 54.1705C385.429 54.8068 384.406 55.6932 383.634 56.8295C382.884 57.9659 382.486 59.2955 382.44 60.8182V72C382.44 73.6818 382.793 75.1818 383.497 76.5C384.202 77.8182 385.213 78.8523 386.531 79.6023C387.849 80.3523 389.44 80.7273 391.304 80.7273C392.599 80.7273 393.781 80.5455 394.849 80.1818C395.94 79.8182 396.872 79.2955 397.645 78.6136C398.418 77.9091 398.986 77.0682 399.349 76.0909H416.531C415.94 79.7273 414.543 82.8864 412.338 85.5682C410.134 88.2273 407.213 90.2955 403.577 91.7727C399.963 93.2273 395.736 93.9545 390.895 93.9545Z" fill="white"/>
</svg>
